<svg width="51" height="62" viewBox="0 0 51 62" fill="none" xmlns="http://www.w3.org/2000/svg">
<path d="M2.30103 48.2682L25.9629 60.2164L48.7261 48.2682V1.54529H2.30103V48.2682Z" fill="white"/>
<path d="M49.2056 1.72449L1.82202 49.1013L26.3824 61.1684L49.2056 49.5768V1.72449Z" fill="#F2F3F2"/>
<path d="M0.744141 17.1198V49.279L1.58279 49.6951L25.2446 61.6433L25.9635 62L26.6823 61.6433L49.5055 49.6951L50.3441 49.279V0H0.744141V17.1198ZM2.30163 48.3873V1.54554H48.7867V48.3873L25.9635 60.3356L2.30163 48.3873Z" fill="#DCDEDC"/>
<path d="M25.5444 2.31831C25.784 2.31831 26.0237 2.31831 26.2633 2.37776L25.5444 3.74497C24.4662 3.68552 23.5077 4.51774 23.4478 5.58773C23.3879 6.65772 24.2266 7.60882 25.3048 7.66827H25.5444C26.0237 7.66827 26.5029 7.48993 26.8623 7.19271L27.641 8.50048C27.042 8.91659 26.3232 9.15436 25.5444 9.15436C23.6275 9.21381 22.0101 7.78715 21.9502 5.88495C21.8903 3.98274 23.328 2.37776 25.2449 2.31831H25.5444ZM28.0005 5.23107L28.899 6.71716L28.0005 8.14382L27.1618 6.71716H25.4246L26.3232 5.23107H28.0005ZM26.5628 4.69607C26.5628 4.45829 26.6227 4.22052 26.7425 4.04219C26.8623 3.86385 27.1019 3.68552 27.2816 3.56664L27.4014 3.50719C27.641 3.3883 27.7009 3.32886 27.7009 3.20997C27.7009 3.09108 27.5212 2.9722 27.4014 2.9722C27.1618 2.9722 26.9821 3.09108 26.8623 3.32886L26.5628 3.03164C26.6227 2.91275 26.7425 2.79386 26.8623 2.67498C27.042 2.55609 27.2217 2.55609 27.4014 2.55609C27.5811 2.55609 27.8208 2.61553 27.9406 2.73442C28.0604 2.85331 28.1802 3.03164 28.1802 3.20997C28.1802 3.50719 28.0005 3.74497 27.641 3.86385L27.4613 3.98274C27.2816 4.10163 27.1618 4.16107 27.1019 4.33941H28.1802V4.75551L26.5628 4.69607ZM25.5444 12.1266L31.2352 8.91659V0H19.7937V8.85714L25.5444 12.1266Z" fill="#FF492C"/>
<path d="M11.4076 24.0152V18.7842C11.4076 18.7247 11.4675 18.6653 11.5274 18.6653H12.9052C12.9651 18.6653 13.025 18.7247 13.025 18.7842V24.0152C13.025 24.788 13.5642 25.3824 14.4028 25.3824C15.2415 25.3824 15.7806 24.8474 15.7806 24.0152V18.7842C15.7806 18.7247 15.8405 18.6653 15.9004 18.6653H17.2782C17.3381 18.6653 17.398 18.7247 17.398 18.7842V24.0152C17.398 25.6797 16.1999 26.7497 14.4028 26.7497C12.6057 26.7497 11.4076 25.6202 11.4076 24.0152ZM18.4163 25.0258V24.9069C18.4163 24.8474 18.4762 24.788 18.5361 24.788H19.7941C19.854 24.788 19.9139 24.8474 19.9139 24.9069C19.9139 25.2636 20.3332 25.5013 20.9323 25.5013C21.4714 25.5013 21.8308 25.2636 21.8308 24.9663C21.8308 24.4908 20.9323 24.4908 20.0936 24.1936C19.3149 23.9558 18.4762 23.5397 18.4762 22.5291C18.4762 21.3997 19.4347 20.6864 20.9323 20.6864C22.4299 20.6864 23.3883 21.4591 23.3883 22.5291C23.3883 22.5886 23.3284 22.648 23.2685 22.648H22.0105C21.9506 22.648 21.8907 22.5886 21.8907 22.5291C21.8907 22.1725 21.5313 21.9347 20.9323 21.9347C20.453 21.9347 20.0936 22.113 20.0936 22.4697C20.0936 22.9452 20.8724 22.9452 21.7709 23.2425C22.6695 23.4802 23.568 23.8963 23.568 24.9663C23.568 26.0958 22.5497 26.7497 21.0521 26.7497C19.4347 26.7497 18.4163 26.0363 18.4163 25.0258ZM29.7381 24.0747C29.7381 24.1936 29.6782 24.1936 29.5584 24.1936H25.9642C25.9043 24.1936 25.9043 24.1936 25.9043 24.253C25.9043 24.4313 25.9642 24.5502 26.0241 24.7286C26.2038 25.1447 26.5632 25.3824 27.2221 25.3824C27.7613 25.3824 28.1207 25.1447 28.4202 24.788C28.4801 24.7286 28.54 24.6691 28.5999 24.788L29.4386 25.6202C29.4985 25.6797 29.4985 25.7391 29.4386 25.7986C28.8994 26.4524 28.0608 26.8091 27.1023 26.8091C25.7845 26.8091 24.8859 26.1552 24.4666 25.0852C24.2869 24.6691 24.227 24.253 24.227 23.6586C24.227 23.2425 24.2869 22.8264 24.4067 22.4697C24.7661 21.3997 25.6646 20.6864 26.9226 20.6864C28.4801 20.6864 29.4386 21.6969 29.6183 23.1236C29.7381 23.4208 29.7381 23.718 29.7381 24.0747ZM26.0241 22.7075C25.9642 22.8264 25.9642 22.9452 25.9642 23.0641C25.9642 23.1236 25.9642 23.1236 26.0241 23.1236H28.0009C28.0608 23.1236 28.0608 23.1236 28.0608 23.0641C28.0608 22.9452 28.0009 22.8264 28.0009 22.7669C27.8811 22.2914 27.5216 22.0536 26.9825 22.0536C26.5033 22.0536 26.2038 22.2914 26.0241 22.7075ZM34.4105 20.8647C34.4704 20.9242 34.4704 20.9836 34.4704 21.043L34.2308 22.3508C34.2308 22.4697 34.1709 22.4697 34.0511 22.4103C33.8714 22.3508 33.6318 22.3508 33.3922 22.3508C32.853 22.4102 32.3738 22.7669 32.3738 23.3614V26.5119C32.3738 26.5713 32.3139 26.6308 32.254 26.6308H30.8762C30.8163 26.6308 30.7564 26.5713 30.7564 26.5119V20.9242C30.7564 20.8647 30.8163 20.8053 30.8762 20.8053H32.254C32.3139 20.8053 32.3738 20.8647 32.3738 20.9242V21.3403C32.3738 21.3997 32.4337 21.3997 32.4337 21.3997C32.7332 20.9836 33.1526 20.6864 33.6917 20.6864C34.0511 20.6864 34.2308 20.7458 34.4105 20.8647ZM34.8898 25.0258V24.9069C34.8898 24.8474 34.9497 24.788 35.0096 24.788H36.2675C36.3274 24.788 36.3873 24.8474 36.3873 24.9069C36.3873 25.2636 36.8067 25.5013 37.4057 25.5013C37.9448 25.5013 38.3043 25.2636 38.3043 24.9663C38.3043 24.4908 37.4057 24.4908 36.5671 24.1936C35.7883 23.9558 34.9497 23.5397 34.9497 22.5291C34.9497 21.3997 35.9081 20.6864 37.4057 20.6864C38.9033 20.6864 39.8617 21.4591 39.8617 22.5291C39.8617 22.5886 39.8018 22.648 39.7419 22.648H38.484C38.4241 22.648 38.3642 22.5886 38.3642 22.5291C38.3642 22.1725 38.0047 21.9347 37.4057 21.9347C36.9265 21.9347 36.5671 22.113 36.5671 22.4697C36.5671 22.9452 37.3458 22.9452 38.2444 23.2425C39.1429 23.4802 40.0415 23.8963 40.0415 24.9663C40.0415 26.0958 39.0231 26.7497 37.5255 26.7497C35.9081 26.7497 34.8898 26.0363 34.8898 25.0258ZM6.19604 36.1418V28.4141C6.19604 28.3546 6.25595 28.2952 6.31585 28.2952H7.69363C7.75353 28.2952 7.81344 28.3546 7.81344 28.4141V34.834C7.81344 34.8935 7.81344 34.8935 7.87334 34.8935H11.6473C11.7072 34.8935 11.7671 34.9529 11.7671 35.0124V36.1418C11.7671 36.2012 11.7072 36.2607 11.6473 36.2607H6.31585C6.25595 36.2607 6.19604 36.2012 6.19604 36.1418ZM12.7255 34.4774C12.6057 34.1207 12.5458 33.7046 12.5458 33.2885C12.5458 32.8724 12.6057 32.3968 12.7255 32.0996C13.0849 30.9702 14.0434 30.3163 15.3613 30.3163C16.6192 30.3163 17.5777 31.0296 17.9371 32.0996C18.0569 32.4563 18.1168 32.8724 18.1168 33.2885C18.1168 33.7046 18.0569 34.1207 17.9371 34.4179C17.5777 35.6068 16.6192 36.3201 15.3613 36.3201C14.0434 36.3796 13.025 35.6662 12.7255 34.4774ZM16.3796 34.1207C16.4395 33.8829 16.4994 33.5857 16.4994 33.3479C16.4994 33.0507 16.4395 32.7535 16.3796 32.5157C16.1999 31.9807 15.8405 31.6835 15.3613 31.6835C14.8221 31.6835 14.4627 31.9807 14.3429 32.5157C14.2231 32.694 14.2231 32.9913 14.2231 33.3479C14.2231 33.6452 14.2231 33.9424 14.283 34.1207C14.4627 34.6557 14.8221 34.9529 15.3613 34.9529C15.8405 35.0124 16.1999 34.6557 16.3796 34.1207ZM20.3332 36.1418L18.4762 30.4946C18.4163 30.3757 18.4762 30.3163 18.596 30.3163H20.0936C20.1535 30.3163 20.2134 30.3757 20.2733 30.4352L21.2318 33.8829C21.2318 33.9424 21.2917 33.9424 21.2917 33.8829L22.2502 30.4352C22.2502 30.3757 22.3101 30.3163 22.4299 30.3163H23.9274C24.0473 30.3163 24.1072 30.3757 24.0473 30.4946L22.1902 36.0823C22.1902 36.1418 22.1303 36.2012 22.0105 36.2012H20.513C20.3931 36.2607 20.3332 36.2607 20.3332 36.1418ZM29.798 33.7046C29.798 33.8235 29.7381 33.8235 29.6183 33.8235H26.0241C25.9642 33.8235 25.9642 33.8235 25.9642 33.8829C25.9642 34.0613 26.0241 34.1801 26.084 34.3585C26.2637 34.7746 26.6231 35.0124 27.282 35.0124C27.8212 35.0124 28.1806 34.7746 28.4801 34.4179C28.54 34.3585 28.5999 34.299 28.6598 34.4179L29.4985 35.2501C29.5584 35.3096 29.5584 35.369 29.4985 35.4285C28.9593 36.0824 28.1207 36.439 27.1622 36.439C25.8444 36.439 24.9458 35.7851 24.5265 34.7151C24.3468 34.299 24.2869 33.8829 24.2869 33.2885C24.2869 32.8724 24.3468 32.4563 24.4666 32.0996C24.826 31.0296 25.7245 30.3163 26.9825 30.3163C28.54 30.3163 29.4985 31.3268 29.6782 32.7535C29.798 33.0507 29.798 33.3479 29.798 33.7046ZM26.084 32.3374C26.0241 32.4563 26.0241 32.5752 26.0241 32.694C26.0241 32.7535 26.0241 32.7535 26.084 32.7535H28.0608C28.1207 32.7535 28.1207 32.7535 28.1207 32.694C28.1207 32.5752 28.0608 32.4563 28.0608 32.3968C27.941 31.9213 27.5816 31.6835 27.0424 31.6835C26.5033 31.6835 26.2038 31.9213 26.084 32.3374ZM33.1526 33.6452V28.4141C33.1526 28.3546 33.2125 28.2952 33.2724 28.2952H34.6501C34.7101 28.2952 34.77 28.3546 34.77 28.4141V33.6452C34.77 34.4179 35.3091 35.0124 36.1477 35.0124C36.9864 35.0124 37.5255 34.4774 37.5255 33.6452V28.4141C37.5255 28.3546 37.5854 28.2952 37.6453 28.2952H39.0231C39.083 28.2952 39.1429 28.3546 39.1429 28.4141V33.6452C39.1429 35.3096 37.9448 36.3796 36.1477 36.3796C34.3506 36.3796 33.1526 35.2501 33.1526 33.6452ZM40.1613 34.6557V34.5368C40.1613 34.4774 40.2212 34.4179 40.2811 34.4179H41.539C41.5989 34.4179 41.6588 34.4774 41.6588 34.5368C41.6588 34.8935 42.0782 35.1312 42.6772 35.1312C43.2163 35.1312 43.5758 34.8935 43.5758 34.5963C43.5758 34.1207 42.6772 34.1207 41.8386 33.8235C41.0598 33.5857 40.2212 33.1696 40.2212 32.1591C40.2212 31.0296 41.1796 30.3163 42.6772 30.3163C44.1748 30.3163 45.1332 31.0891 45.1332 32.1591C45.1332 32.2185 45.0733 32.2779 45.0134 32.2779H43.7555C43.6956 32.2779 43.6357 32.2185 43.6357 32.1591C43.6357 31.8024 43.2762 31.5646 42.6772 31.5646C42.198 31.5646 41.8386 31.7429 41.8386 32.0996C41.8386 32.5752 42.6173 32.5752 43.5159 32.8724C44.4144 33.1102 45.313 33.5263 45.313 34.5963C45.313 35.7257 44.2946 36.3796 42.797 36.3796C41.1796 36.3796 40.1613 35.6662 40.1613 34.6557Z" fill="#252530"/>
<path d="M9.01221 43.0957H20.9929V43.5713H9.01221V43.0957ZM30.4576 43.0957H42.4383V43.5713H30.4576V43.0957Z" fill="#DCDEDC"/>
<path d="M22.8477 42.5616L24.7047 42.2644L25.6631 40.4216L26.5617 42.2049L28.5385 42.5616L27.1607 43.9288L27.4602 45.8905L25.6631 45.0583L23.866 45.8905L24.1056 43.9288L22.8477 42.5616Z" fill="#DCDEDC"/>
</svg>
